<svg version="1.1" viewBox="0.0 0.0 126.81364829396325 100.0" fill="none" stroke="none" stroke-linecap="square" stroke-miterlimit="10" xmlns:xlink="http://www.w3.org/1999/xlink" xmlns="http://www.w3.org/2000/svg"><clipPath id="p.0"><path d="m0 0l126.81365 0l0 100.0l-126.81365 0l0 -100.0z" clip-rule="nonzero"/></clipPath><g clip-path="url(#p.0)"><path fill="#000000" fill-opacity="0.0" d="m0 0l126.81365 0l0 100.0l-126.81365 0z" fill-rule="evenodd"/><path fill="#fb8f8a" d="m0 0l126.80315 0l0 42.015747l-126.80315 0z" fill-rule="evenodd"/><path fill="#1b1f3b" d="m29.34336 27.232498q-0.75 0 -1.296875 -0.3125q-0.546875 -0.296875 -0.546875 -1.0625q0 -0.484375 0.234375 -1.078125q0.34375 0.375 0.625 0.53125q0.296875 0.140625 0.625 0.140625q0.9375 0 1.390625 -1.046875q0.46875 -1.046875 0.46875 -2.3125q0 -2.375 -1.78125 -2.375q-0.5 0 -0.859375 0.0625l-1.53125 7.140625l-2.6875 0l2.546875 -11.859375l2.75 -0.375l-0.875 4.140625l0.125 0q0.703125 0 1.3125 -0.453125q0.625 -0.46875 0.984375 -1.15625q0.375 -0.703125 0.375 -1.421875q0 -0.859375 -0.609375 -1.4375q-0.59375 -0.578125 -1.84375 -0.578125q-1.140625 0 -2.21875 0.515625q-1.078125 0.515625 -1.765625 1.546875q-0.6875 1.015625 -0.6875 2.484375q0 0.6875 0.125 0.953125q0.140625 0.265625 0.140625 0.3125q-0.984375 0 -1.5 -0.40625q-0.5 -0.40625 -0.5 -1.3125q0 -1.265625 0.953125 -2.40625q0.953125 -1.140625 2.515625 -1.84375q1.578125 -0.703125 3.3125 -0.703125q1.296875 0 2.1875 0.421875q0.90625 0.40625 1.34375 1.078125q0.4375 0.671875 0.4375 1.46875q0 0.859375 -0.484375 1.671875q-0.484375 0.796875 -1.375 1.296875q1.109375 0.203125 1.65625 1.046875q0.546875 0.828125 0.546875 1.953125q0 1.0625 -0.40625 2.3125q-0.40625 1.25 -1.328125 2.15625q-0.921875 0.90625 -2.359375 0.90625zm6.583664 -0.203125q-0.890625 0 -1.453125 -0.546875q-0.546875 -0.5625 -0.546875 -1.6875q0 -0.46875 0.15625 -1.21875l2.0 -9.34375l2.75 -0.375l-2.140625 10.078125q-0.078125 0.28125 -0.078125 0.59375q0 0.375 0.171875 0.53125q0.1875 0.15625 0.59375 0.15625q0.546875 0 1.015625 -0.453125q0.46875 -0.453125 0.671875 -1.1875l0.78125 0q-0.6875 2.015625 -1.78125 2.734375q-1.078125 0.71875 -2.140625 0.71875zm5.3718414 0q-1.0625 0 -1.78125 -0.71875q-0.703125 -0.734375 -0.703125 -2.28125q0 -1.375 0.546875 -2.890625q0.5625 -1.53125 1.65625 -2.578125q1.09375 -1.0625 2.59375 -1.0625q0.765625 0 1.140625 0.265625q0.375 0.25 0.375 0.6875l0 0.125l0.203125 -0.984375l2.6875 0l-1.34375 6.34375q-0.078125 0.28125 -0.078125 0.59375q0 0.8125 0.765625 0.8125q0.53125 0 0.90625 -0.484375q0.390625 -0.5 0.609375 -1.28125l0.78125 0q-0.6875 2.015625 -1.703125 2.734375q-1.015625 0.71875 -2.046875 0.71875q-0.78125 0 -1.265625 -0.4375q-0.46875 -0.4375 -0.5625 -1.28125q-0.53125 0.765625 -1.203125 1.25q-0.65625 0.46875 -1.578125 0.46875zm1.21875 -1.8125q0.46875 0 0.921875 -0.4375q0.453125 -0.4375 0.625 -1.203125l0.890625 -4.21875q0 -0.234375 -0.1875 -0.46875q-0.1875 -0.234375 -0.578125 -0.234375q-0.734375 0 -1.34375 0.875q-0.59375 0.859375 -0.9375 2.09375q-0.328125 1.21875 -0.328125 2.140625q0 0.9375 0.265625 1.203125q0.28125 0.25 0.671875 0.25zm9.031937 1.8125q-1.390625 0 -2.15625 -0.71875q-0.765625 -0.71875 -0.765625 -2.25q0 -1.28125 0.515625 -2.828125q0.515625 -1.546875 1.640625 -2.671875q1.140625 -1.140625 2.875 -1.140625q1.109375 0 1.578125 0.484375q0.484375 0.484375 0.484375 1.234375q0 0.65625 -0.28125 1.015625q-0.28125 0.34375 -0.703125 0.34375q-0.3125 0 -0.65625 -0.21875q0.21875 -0.609375 0.21875 -1.109375q0 -0.34375 -0.125 -0.546875q-0.125 -0.203125 -0.390625 -0.203125q-0.5625 0 -1.125 0.921875q-0.546875 0.90625 -0.90625 2.21875q-0.359375 1.296875 -0.359375 2.34375q0 0.90625 0.3125 1.234375q0.328125 0.328125 1.03125 0.328125q1.015625 0 1.734375 -0.46875q0.71875 -0.46875 1.5625 -1.421875l0.640625 0q-2.0625 3.453125 -5.125 3.453125zm11.507751 0q-1.15625 0 -1.75 -0.546875q-0.59375 -0.546875 -0.59375 -1.578125q0 -0.453125 0.109375 -0.96875l0.140625 -0.734375q0.078125 -0.3125 0.078125 -0.6875q0 -0.890625 -0.671875 -0.890625q-0.296875 0 -0.625 0.171875q-0.328125 0.15625 -0.75 0.515625l-0.96875 4.609375l-2.6875 0l2.703125 -12.6875l2.75 -0.375l-1.390625 6.5625l3.59375 -2.828125l1.859375 0l-3.734375 2.59375q0.28125 -0.078125 0.609375 -0.078125q1.015625 0 1.53125 0.625q0.53125 0.609375 0.53125 1.5625q0 0.390625 -0.078125 0.703125l-0.203125 0.9375q-0.09375 0.328125 -0.09375 0.59375q0 0.6875 0.71875 0.6875q0.40625 0 0.515625 -0.046875q0.125 -0.0625 0.140625 -0.0625q-0.03125 0.625 -0.34375 1.0625q-0.3125 0.421875 -0.71875 0.640625q-0.390625 0.21875 -0.671875 0.21875zm8.9166565 3.75q-1.328125 0 -2.046875 -0.71875q-0.71875 -0.71875 -0.71875 -1.90625q0 -1.015625 0.609375 -1.75q0.625 -0.75 1.671875 -0.75q0.796875 0 1.3125 0.234375q0.515625 0.234375 0.515625 1.015625q0 0.328125 -0.109375 0.75q-0.34375 -0.28125 -0.59375 -0.390625q-0.234375 -0.09375 -0.53125 -0.09375q-0.609375 0 -0.953125 0.40625q-0.34375 0.40625 -0.34375 0.96875q0 0.65625 0.390625 0.96875q0.390625 0.328125 0.875 0.328125q0.4375 0 0.75 -0.171875q0.3125 -0.171875 0.546875 -0.671875q0.25 -0.5 0.46875 -1.4375l2.9375 -13.328125q-1.25 0.5 -1.953125 1.546875q-0.6875 1.046875 -0.6875 2.546875q0 0.6875 0.125 0.953125q0.140625 0.265625 0.140625 0.3125q-1.0 0 -1.5 -0.421875q-0.5 -0.421875 -0.5 -1.390625q0 -1.1875 0.984375 -2.3125q0.984375 -1.140625 2.5 -1.84375q1.53125 -0.703125 3.0625 -0.703125l0.75 0l-2.796875 13.25q-0.484375 2.296875 -1.609375 3.453125q-1.109375 1.15625 -3.296875 1.15625zm9.156006 -3.75q-1.0625 0 -1.78125 -0.71875q-0.703125 -0.734375 -0.703125 -2.28125q0 -1.375 0.546875 -2.890625q0.5625 -1.53125 1.65625 -2.578125q1.09375 -1.0625 2.59375 -1.0625q0.765625 0 1.140625 0.265625q0.375 0.25 0.375 0.6875l0 0.125l0.203125 -0.984375l2.6875 0l-1.34375 6.34375q-0.078125 0.28125 -0.078125 0.59375q0 0.8125 0.765625 0.8125q0.53125 0 0.90625 -0.484375q0.390625 -0.5 0.609375 -1.28125l0.78125 0q-0.6875 2.015625 -1.703125 2.734375q-1.015625 0.71875 -2.046875 0.71875q-0.78125 0 -1.265625 -0.4375q-0.46875 -0.4375 -0.5625 -1.28125q-0.53125 0.765625 -1.203125 1.25q-0.65625 0.46875 -1.578125 0.46875zm1.21875 -1.8125q0.46875 0 0.921875 -0.4375q0.453125 -0.4375 0.625 -1.203125l0.890625 -4.21875q0 -0.234375 -0.1875 -0.46875q-0.1875 -0.234375 -0.578125 -0.234375q-0.734375 0 -1.34375 0.875q-0.59375 0.859375 -0.9375 2.09375q-0.328125 1.21875 -0.328125 2.140625q0 0.9375 0.265625 1.203125q0.28125 0.25 0.671875 0.25zm9.031937 1.8125q-1.390625 0 -2.15625 -0.71875q-0.765625 -0.71875 -0.765625 -2.25q0 -1.28125 0.515625 -2.828125q0.515625 -1.546875 1.640625 -2.671875q1.140625 -1.140625 2.875 -1.140625q1.109375 0 1.578125 0.484375q0.484375 0.484375 0.484375 1.234375q0 0.65625 -0.28125 1.015625q-0.28125 0.34375 -0.703125 0.34375q-0.3125 0 -0.65625 -0.21875q0.21875 -0.609375 0.21875 -1.109375q0 -0.34375 -0.125 -0.546875q-0.125 -0.203125 -0.390625 -0.203125q-0.5625 0 -1.125 0.921875q-0.546875 0.90625 -0.90625 2.21875q-0.359375 1.296875 -0.359375 2.34375q0 0.90625 0.3125 1.234375q0.328125 0.328125 1.03125 0.328125q1.015625 0 1.734375 -0.46875q0.71875 -0.46875 1.5625 -1.421875l0.640625 0q-2.0625 3.453125 -5.125 3.453125zm11.507751 0q-1.15625 0 -1.75 -0.546875q-0.59375 -0.546875 -0.59375 -1.578125q0 -0.453125 0.109375 -0.96875l0.140625 -0.734375q0.078125 -0.3125 0.078125 -0.6875q0 -0.890625 -0.671875 -0.890625q-0.296875 0 -0.625 0.171875q-0.328125 0.15625 -0.75 0.515625l-0.96875 4.609375l-2.6875 0l2.703125 -12.6875l2.75 -0.375l-1.390625 6.5625l3.59375 -2.828125l1.859375 0l-3.734375 2.59375q0.28125 -0.078125 0.609375 -0.078125q1.015625 0 1.53125 0.625q0.53125 0.609375 0.53125 1.5625q0 0.390625 -0.078125 0.703125l-0.203125 0.9375q-0.09375 0.328125 -0.09375 0.59375q0 0.6875 0.71875 0.6875q0.40625 0 0.515625 -0.046875q0.125 -0.0625 0.140625 -0.0625q-0.03125 0.625 -0.34375 1.0625q-0.3125 0.421875 -0.71875 0.640625q-0.390625 0.21875 -0.671875 0.21875z" fill-rule="nonzero"/></g></svg>