<svg version="1.1" viewBox="0.0 0.0 126.81364829396325 100.0" fill="none" stroke="none" stroke-linecap="square" stroke-miterlimit="10" xmlns:xlink="http://www.w3.org/1999/xlink" xmlns="http://www.w3.org/2000/svg"><clipPath id="p.0"><path d="m0 0l126.81365 0l0 100.0l-126.81365 0l0 -100.0z" clip-rule="nonzero"/></clipPath><g clip-path="url(#p.0)"><path fill="#000000" fill-opacity="0.0" d="m0 0l126.81365 0l0 100.0l-126.81365 0z" fill-rule="evenodd"/><path fill="#fb8f8a" d="m0 0l126.80315 0l0 42.015747l-126.80315 0z" fill-rule="evenodd"/><path fill="#1b1f3b" d="m19.557396 27.248123q-1.1875 0 -2.078125 -0.40625q-0.890625 -0.40625 -1.375 -1.140625q-0.484375 -0.734375 -0.484375 -1.703125q0 -0.828125 0.34375 -1.5q0.34375 -0.671875 0.921875 -1.0625q0.59375 -0.390625 1.296875 -0.390625q0.65625 0 1.09375 0.328125q0.453125 0.328125 0.578125 0.90625q-0.96875 0 -1.546875 0.515625q-0.578125 0.5 -0.578125 1.375q0 0.8125 0.484375 1.296875q0.484375 0.484375 1.28125 0.484375q0.984375 0 1.625 -0.65625q0.65625 -0.671875 0.65625 -1.671875q0 -0.875 -0.484375 -1.65625q-0.484375 -0.796875 -1.46875 -1.90625q-1.0 -1.15625 -1.515625 -1.984375q-0.515625 -0.84375 -0.515625 -1.828125q0 -0.96875 0.546875 -1.734375q0.546875 -0.78125 1.484375 -1.21875q0.953125 -0.453125 2.15625 -0.453125q1.5 0 2.40625 0.703125q0.90625 0.703125 0.90625 1.90625q0 0.78125 -0.390625 1.265625q-0.390625 0.484375 -1.015625 0.484375q-0.71875 0 -1.140625 -0.578125q0.34375 -0.265625 0.546875 -0.6875q0.21875 -0.4375 0.21875 -0.90625q0 -0.59375 -0.359375 -0.9375q-0.359375 -0.359375 -0.96875 -0.359375q-0.75 0 -1.234375 0.53125q-0.46875 0.53125 -0.46875 1.34375q0 0.75 0.421875 1.40625q0.4375 0.640625 1.359375 1.640625q0.734375 0.796875 1.1875 1.375q0.46875 0.578125 0.796875 1.34375q0.328125 0.75 0.328125 1.625q0 1.203125 -0.671875 2.171875q-0.65625 0.96875 -1.8125 1.53125q-1.140625 0.546875 -2.53125 0.546875zm8.774689 -0.25q-1.375 0 -2.1875 -0.703125q-0.796875 -0.71875 -0.796875 -2.25q0 -1.265625 0.515625 -2.8125q0.53125 -1.546875 1.6875 -2.671875q1.15625 -1.140625 2.90625 -1.140625q2.390625 0 2.390625 2.984375l0 0.015625q0.0625 0.03125 0.203125 0.03125q0.625 0 1.421875 -0.328125q0.796875 -0.328125 1.453125 -0.796875l0.171875 0.5q-0.546875 0.578125 -1.421875 0.984375q-0.859375 0.40625 -1.875 0.5625q-0.15625 1.703125 -0.78125 2.96875q-0.609375 1.265625 -1.578125 1.96875q-0.96875 0.6875 -2.109375 0.6875zm0.75 -1.6875q0.453125 0 0.890625 -0.5q0.453125 -0.515625 0.78125 -1.40625q0.34375 -0.890625 0.5 -1.96875q-0.515625 -0.109375 -0.515625 -0.78125q0 -0.765625 0.578125 -1.015625q-0.03125 -0.609375 -0.1875 -0.84375q-0.140625 -0.234375 -0.515625 -0.234375q-0.609375 0 -1.1875 0.90625q-0.578125 0.890625 -0.9375 2.140625q-0.359375 1.25 -0.359375 2.203125q0 0.890625 0.203125 1.203125q0.203125 0.296875 0.75 0.296875zm6.565094 1.71875q-0.890625 0 -1.453125 -0.546875q-0.546875 -0.5625 -0.546875 -1.6875q0 -0.46875 0.15625 -1.21875l2.0 -9.34375l2.75 -0.375l-2.140625 10.078125q-0.078125 0.28125 -0.078125 0.59375q0 0.375 0.171875 0.53125q0.1875 0.15625 0.59375 0.15625q0.546875 0 1.015625 -0.453125q0.46875 -0.453125 0.671875 -1.1875l0.78125 0q-0.6875 2.015625 -1.78125 2.734375q-1.078125 0.71875 -2.140625 0.71875zm6.2468414 -10.4375q-0.609375 0 -1.046875 -0.421875q-0.421875 -0.4375 -0.421875 -1.0625q0 -0.609375 0.421875 -1.046875q0.4375 -0.4375 1.046875 -0.4375q0.625 0 1.0625 0.4375q0.4375 0.4375 0.4375 1.046875q0 0.625 -0.4375 1.0625q-0.4375 0.421875 -1.0625 0.421875zm-1.265625 10.4375q-0.890625 0 -1.453125 -0.546875q-0.546875 -0.5625 -0.546875 -1.6875q0 -0.46875 0.15625 -1.21875l1.265625 -5.984375l2.6875 0l-1.34375 6.34375q-0.078125 0.28125 -0.078125 0.59375q0 0.375 0.171875 0.53125q0.1875 0.15625 0.59375 0.15625q0.546875 0 1.015625 -0.453125q0.46875 -0.453125 0.671875 -1.1875l0.78125 0q-0.6875 2.015625 -1.78125 2.734375q-1.078125 0.71875 -2.140625 0.71875zm4.9812164 0q-0.890625 0 -1.453125 -0.546875q-0.546875 -0.5625 -0.546875 -1.6875q0 -0.46875 0.15625 -1.21875l1.125 -5.234375l-0.625 0l0.15625 -0.75l0.609375 0l0.5625 -2.578125l2.765625 -0.375l-0.640625 2.953125l1.125 0l-0.15625 0.75l-1.109375 0l-1.203125 5.59375q-0.078125 0.28125 -0.078125 0.59375q0 0.375 0.171875 0.53125q0.1875 0.15625 0.59375 0.15625q0.546875 0 1.015625 -0.453125q0.46875 -0.453125 0.671875 -1.1875l0.78125 0q-0.6875 2.015625 -1.78125 2.734375q-1.078125 0.71875 -2.140625 0.71875zm5.3718414 0q-1.0625 0 -1.78125 -0.71875q-0.703125 -0.734375 -0.703125 -2.28125q0 -1.375 0.546875 -2.890625q0.5625 -1.53125 1.65625 -2.578125q1.09375 -1.0625 2.59375 -1.0625q0.765625 0 1.140625 0.265625q0.375 0.25 0.375 0.6875l0 0.125l0.203125 -0.984375l2.6875 0l-1.34375 6.34375q-0.078125 0.28125 -0.078125 0.59375q0 0.8125 0.765625 0.8125q0.53125 0 0.90625 -0.484375q0.390625 -0.5 0.609375 -1.28125l0.78125 0q-0.6875 2.015625 -1.703125 2.734375q-1.015625 0.71875 -2.046875 0.71875q-0.78125 0 -1.265625 -0.4375q-0.46875 -0.4375 -0.5625 -1.28125q-0.53125 0.765625 -1.203125 1.25q-0.65625 0.46875 -1.578125 0.46875zm1.21875 -1.8125q0.46875 0 0.921875 -0.4375q0.453125 -0.4375 0.625 -1.203125l0.890625 -4.21875q0 -0.234375 -0.1875 -0.46875q-0.1875 -0.234375 -0.578125 -0.234375q-0.734375 0 -1.34375 0.875q-0.59375 0.859375 -0.9375 2.09375q-0.328125 1.21875 -0.328125 2.140625q0 0.9375 0.265625 1.203125q0.28125 0.25 0.671875 0.25zm9.469437 -8.625q-0.609375 0 -1.046875 -0.421875q-0.421875 -0.4375 -0.421875 -1.0625q0 -0.609375 0.421875 -1.046875q0.4375 -0.4375 1.046875 -0.4375q0.625 0 1.0625 0.4375q0.4375 0.4375 0.4375 1.046875q0 0.625 -0.4375 1.0625q-0.4375 0.421875 -1.0625 0.421875zm-1.265625 10.4375q-0.890625 0 -1.453125 -0.546875q-0.546875 -0.5625 -0.546875 -1.6875q0 -0.46875 0.15625 -1.21875l1.265625 -5.984375l2.6875 0l-1.34375 6.34375q-0.078125 0.28125 -0.078125 0.59375q0 0.375 0.171875 0.53125q0.1875 0.15625 0.59375 0.15625q0.546875 0 1.015625 -0.453125q0.46875 -0.453125 0.671875 -1.1875l0.78125 0q-0.6875 2.015625 -1.78125 2.734375q-1.078125 0.71875 -2.140625 0.71875zm4.4030914 -9.4375l2.6875 0l-0.234375 1.15625q0.625 -0.5625 1.140625 -0.859375q0.515625 -0.296875 1.109375 -0.296875q0.59375 0 0.9375 0.421875q0.34375 0.40625 0.34375 0.984375q0 0.53125 -0.359375 0.953125q-0.34375 0.40625 -0.984375 0.40625q-0.40625 0 -0.546875 -0.1875q-0.140625 -0.203125 -0.203125 -0.578125q-0.0625 -0.25 -0.125 -0.359375q-0.046875 -0.109375 -0.203125 -0.109375q-0.390625 0 -0.65625 0.15625q-0.265625 0.15625 -0.703125 0.546875l-1.484375 7.09375l-2.6875 0l1.96875 -9.328125zm8.37413 9.4375q-1.359375 0 -2.125 -0.71875q-0.765625 -0.71875 -0.765625 -2.25q0 -1.28125 0.5 -2.828125q0.515625 -1.546875 1.640625 -2.671875q1.140625 -1.140625 2.90625 -1.140625q2.046875 0 2.046875 1.796875q0 1.046875 -0.59375 1.921875q-0.59375 0.875 -1.59375 1.40625q-0.984375 0.53125 -2.109375 0.609375q-0.03125 0.40625 -0.03125 0.5625q0 1.546875 1.15625 1.546875q0.515625 0 1.109375 -0.28125q0.609375 -0.28125 1.09375 -0.71875q-0.5 2.765625 -3.234375 2.765625zm0.046875 -4.78125q0.703125 -0.015625 1.328125 -0.453125q0.625 -0.453125 1.0 -1.15625q0.390625 -0.703125 0.390625 -1.46875q0 -0.75 -0.46875 -0.75q-0.65625 0 -1.296875 1.1875q-0.640625 1.171875 -0.953125 2.640625zm13.782837 -7.671875l-0.21875 0q-1.671875 0 -2.59375 0.828125q-0.921875 0.828125 -0.921875 2.9375q0 0.6875 0.125 0.96875q0.140625 0.265625 0.140625 0.296875q-1.015625 0 -1.515625 -0.421875q-0.484375 -0.421875 -0.484375 -1.390625q0 -1.328125 0.65625 -2.40625q0.65625 -1.09375 2.078125 -1.765625q1.421875 -0.671875 3.625 -0.671875q1.234375 0 2.65625 0.21875q1.1875 0.203125 2.125 0.203125q1.1875 0 2.15625 -0.390625q-0.03125 1.21875 -0.609375 1.796875q-0.578125 0.578125 -1.71875 0.578125q-0.59375 0 -1.1875 -0.09375q-0.59375 -0.09375 -1.703125 -0.328125l-2.578125 11.984375l-2.6875 0l2.65625 -12.34375zm5.2392883 12.453125q-0.890625 0 -1.453125 -0.546875q-0.546875 -0.5625 -0.546875 -1.6875q0 -0.46875 0.15625 -1.21875l1.265625 -5.984375l2.6875 0l-1.34375 6.34375q-0.046875 0.21875 -0.046875 0.46875q0 0.8125 0.546875 0.8125q0.53125 0 0.90625 -0.4375q0.375 -0.4375 0.59375 -1.203125l1.265625 -5.984375l2.6875 0l-1.34375 6.34375q-0.09375 0.46875 -0.09375 0.671875q0 0.609375 0.640625 0.609375q0.859375 0 1.59375 -1.078125q0.734375 -1.078125 1.171875 -2.5625q0.453125 -1.5 0.453125 -2.578125q-0.03125 0.09375 -0.234375 0.140625q-0.203125 0.03125 -0.359375 0.03125q-0.3125 0 -0.5 -0.296875q-0.171875 -0.296875 -0.171875 -0.640625q0 -0.453125 0.28125 -0.734375q0.296875 -0.28125 0.875 -0.28125q0.625 0 0.890625 0.46875q0.28125 0.453125 0.28125 1.15625q0 1.671875 -0.578125 3.59375q-0.578125 1.90625 -1.78125 3.25q-1.1875 1.34375 -2.953125 1.34375q-0.90625 0 -1.484375 -0.390625q-0.578125 -0.390625 -0.75 -1.171875q-1.046875 1.5625 -2.65625 1.5625zm13.206787 -0.03125q-1.375 0 -2.1875 -0.703125q-0.796875 -0.71875 -0.796875 -2.25q0 -1.28125 0.5 -2.8125q0.515625 -1.546875 1.640625 -2.671875q1.140625 -1.140625 2.921875 -1.140625q2.203125 0 2.359375 2.515625q0.421875 -0.09375 0.734375 -0.453125q0.3125 -0.359375 0.59375 -0.828125l0.59375 0q-0.5 1.015625 -0.890625 1.578125q-0.390625 0.5625 -1.03125 0.921875q-0.109375 1.75 -0.71875 3.078125q-0.59375 1.328125 -1.5625 2.046875q-0.96875 0.71875 -2.15625 0.71875zm0.75 -1.6875q0.6875 0 1.28125 -1.109375q0.609375 -1.125 0.828125 -2.765625q-0.453125 -0.171875 -0.453125 -0.84375q0 -0.71875 0.53125 -0.96875q-0.046875 -0.59375 -0.203125 -0.828125q-0.15625 -0.234375 -0.515625 -0.234375q-0.609375 0 -1.171875 0.890625q-0.5625 0.890625 -0.90625 2.15625q-0.34375 1.25 -0.34375 2.203125q0 0.890625 0.203125 1.203125q0.203125 0.296875 0.75 0.296875z" fill-rule="nonzero"/></g></svg>