<svg version="1.1" viewBox="0.0 0.0 126.81364829396325 100.0" fill="none" stroke="none" stroke-linecap="square" stroke-miterlimit="10" xmlns:xlink="http://www.w3.org/1999/xlink" xmlns="http://www.w3.org/2000/svg"><clipPath id="p.0"><path d="m0 0l126.81365 0l0 100.0l-126.81365 0l0 -100.0z" clip-rule="nonzero"/></clipPath><g clip-path="url(#p.0)"><path fill="#000000" fill-opacity="0.0" d="m0 0l126.81365 0l0 100.0l-126.81365 0z" fill-rule="evenodd"/><path fill="#fb8f8a" d="m0 0l126.80315 0l0 42.015747l-126.80315 0z" fill-rule="evenodd"/><path fill="#1b1f3b" d="m40.64852 14.169998q-1.328125 0.515625 -2.0625 1.578125q-0.71875 1.046875 -0.71875 2.578125q0 0.6875 0.125 0.953125q0.140625 0.265625 0.140625 0.3125q-1.015625 0 -1.515625 -0.421875q-0.484375 -0.421875 -0.484375 -1.390625q0 -1.1875 0.984375 -2.3125q0.984375 -1.140625 2.5 -1.84375q1.53125 -0.703125 3.0625 -0.703125q0.265625 0 0.75 0.046875l0.171875 11.46875l3.921875 -11.421875l2.359375 0l0.171875 11.421875l3.921875 -11.421875l1.296875 0l-5.1875 13.90625l-2.6875 0l-0.21875 -9.5l-3.546875 9.5l-2.6875 0l-0.296875 -12.75zm16.041061 12.828125q-1.375 0 -2.1875 -0.703125q-0.796875 -0.71875 -0.796875 -2.25q0 -1.265625 0.515625 -2.8125q0.53125 -1.546875 1.6875 -2.671875q1.15625 -1.140625 2.90625 -1.140625q2.390625 0 2.390625 2.984375l0 0.015625q0.0625 0.03125 0.203125 0.03125q0.625 0 1.421875 -0.328125q0.796875 -0.328125 1.453125 -0.796875l0.171875 0.5q-0.546875 0.578125 -1.421875 0.984375q-0.859375 0.40625 -1.875 0.5625q-0.15625 1.703125 -0.78125 2.96875q-0.609375 1.265625 -1.578125 1.96875q-0.96875 0.6875 -2.109375 0.6875zm0.75 -1.6875q0.453125 0 0.890625 -0.5q0.453125 -0.515625 0.78125 -1.40625q0.34375 -0.890625 0.5 -1.96875q-0.515625 -0.109375 -0.515625 -0.78125q0 -0.765625 0.578125 -1.015625q-0.03125 -0.609375 -0.1875 -0.84375q-0.140625 -0.234375 -0.515625 -0.234375q-0.609375 0 -1.1875 0.90625q-0.578125 0.890625 -0.9375 2.140625q-0.359375 1.25 -0.359375 2.203125q0 0.890625 0.203125 1.203125q0.203125 0.296875 0.75 0.296875zm5.986969 -7.71875l2.6875 0l-0.234375 1.15625q0.625 -0.5625 1.140625 -0.859375q0.515625 -0.296875 1.109375 -0.296875q0.59375 0 0.9375 0.421875q0.34375 0.40625 0.34375 0.984375q0 0.53125 -0.359375 0.953125q-0.34375 0.40625 -0.984375 0.40625q-0.40625 0 -0.546875 -0.1875q-0.140625 -0.203125 -0.203125 -0.578125q-0.0625 -0.25 -0.125 -0.359375q-0.046875 -0.109375 -0.203125 -0.109375q-0.390625 0 -0.65625 0.15625q-0.265625 0.15625 -0.703125 0.546875l-1.484375 7.09375l-2.6875 0l1.96875 -9.328125zm7.9835052 9.4375q-1.0625 0 -1.78125 -0.71875q-0.703125 -0.734375 -0.703125 -2.28125q0 -1.375 0.546875 -2.890625q0.5625 -1.53125 1.65625 -2.578125q1.09375 -1.0625 2.59375 -1.0625q0.765625 0 1.140625 0.265625q0.375 0.25 0.375 0.6875l0 0.078125l0.921875 -4.296875l2.75 -0.375l-2.140625 10.078125q-0.078125 0.28125 -0.078125 0.59375q0 0.375 0.171875 0.53125q0.1875 0.15625 0.59375 0.15625q0.53125 0 0.90625 -0.4375q0.390625 -0.453125 0.609375 -1.203125l0.78125 0q-1.140625 3.34375 -3.75 3.34375q-0.765625 0 -1.25 -0.40625q-0.46875 -0.421875 -0.578125 -1.203125q-0.484375 0.75 -1.171875 1.234375q-0.671875 0.484375 -1.59375 0.484375zm1.21875 -1.8125q0.453125 0 0.90625 -0.40625q0.453125 -0.40625 0.625 -1.140625l0 -0.09375l0.90625 -4.265625q-0.15625 -0.65625 -0.765625 -0.65625q-0.734375 0 -1.34375 0.875q-0.59375 0.859375 -0.9375 2.09375q-0.328125 1.21875 -0.328125 2.140625q0 0.9375 0.265625 1.203125q0.28125 0.25 0.671875 0.25zm8.185165 1.8125q-0.890625 0 -1.453125 -0.546875q-0.546875 -0.5625 -0.546875 -1.6875q0 -0.46875 0.15625 -1.21875l2.0 -9.34375l2.75 -0.375l-2.140625 10.078125q-0.078125 0.28125 -0.078125 0.59375q0 0.375 0.171875 0.53125q0.1875 0.15625 0.59375 0.15625q0.546875 0 1.015625 -0.453125q0.46875 -0.453125 0.671875 -1.1875l0.78125 0q-0.6875 2.015625 -1.78125 2.734375q-1.078125 0.71875 -2.140625 0.71875zm5.7624664 0q-1.359375 0 -2.125 -0.71875q-0.765625 -0.71875 -0.765625 -2.25q0 -1.28125 0.5 -2.828125q0.515625 -1.546875 1.640625 -2.671875q1.140625 -1.140625 2.90625 -1.140625q2.046875 0 2.046875 1.796875q0 1.046875 -0.59375 1.921875q-0.59375 0.875 -1.59375 1.40625q-0.984375 0.53125 -2.109375 0.609375q-0.03125 0.40625 -0.03125 0.5625q0 1.546875 1.15625 1.546875q0.515625 0 1.109375 -0.28125q0.609375 -0.28125 1.09375 -0.71875q-0.5 2.765625 -3.234375 2.765625zm0.046875 -4.78125q0.703125 -0.015625 1.328125 -0.453125q0.625 -0.453125 1.0 -1.15625q0.390625 -0.703125 0.390625 -1.46875q0 -0.75 -0.46875 -0.75q-0.65625 0 -1.296875 1.1875q-0.640625 1.171875 -0.953125 2.640625z" fill-rule="nonzero"/></g></svg>