<?xml version="1.0" encoding="utf-8"?>
<!-- Generator: Adobe Illustrator 24.1.1, SVG Export Plug-In . SVG Version: 6.00 Build 0)  -->
<svg version="1.1" id="katman_1" xmlns="http://www.w3.org/2000/svg" xmlns:xlink="http://www.w3.org/1999/xlink" x="0px" y="0px"
	 viewBox="0 0 2000 2000" style="enable-background:new 0 0 2000 2000;" xml:space="preserve">
<path d="M1259.37,1453.82c-85.77,0.1-164.19-31.26-224.54-83.07c40.68,288.53,216.5,309.34,253.49,310.46l0.05,31.11l-611.3,0.74
	l-0.04-31.1c37-1.22,212.8-22.42,252.77-311.1c-60.2,51.98-138.57,83.53-224.36,83.63c-190.12,0.23-344.41-153.72-344.65-343.84
	c-0.21-172.67,126.78-315.78,292.52-340.75c-37.42-118.44-9.34-253.08,84.44-347.08c134.26-134.59,352.24-134.86,486.84-0.58
	c94.01,93.78,122.39,228.34,85.26,346.85c165.81,24.61,293.13,167.4,293.34,340.08C1603.41,1299.29,1449.5,1453.59,1259.37,1453.82z
	"/>
</svg>
